<svg xmlns="http://www.w3.org/2000/svg" viewBox="0 0 1120 640" font-family="Georgia, serif" role="img" aria-label="Harbor chart of the approach to the Harborline yard">
<rect width="1120" height="640" fill="#dceaec"/>
<polygon data-land="1" points="526.4,0 526.4,0.0 537.6,0.0 548.8,0.0 560.0,3.3 571.2,8.4 582.4,13.3 593.6,18.2 604.8,23.1 616.0,27.9 627.2,32.8 638.4,37.8 649.6,42.8 660.8,48.0 672.0,53.4 683.2,59.0 694.4,64.8 705.6,70.8 716.8,77.2 728.0,83.8 739.2,90.8 750.4,98.1 761.6,105.8 772.8,113.8 784.0,122.2 795.2,130.9 806.4,140.0 817.6,149.4 828.8,159.1 840.0,169.1 851.2,179.4 862.4,190.0 873.6,200.8 884.8,211.8 896.0,222.9 907.2,234.2 918.4,245.5 929.6,256.9 940.8,268.3 952.0,279.7 963.2,291.1 974.4,302.3 985.6,313.5 996.8,324.5 1008.0,335.3 1019.2,345.9 1030.4,356.3 1041.6,366.5 1052.8,376.4 1064.0,386.0 1075.2,395.4 1086.4,404.6 1097.6,413.5 1108.8,422.1 1120.0,430.4 1120.0,0" fill="#f6f1e4" stroke="none"/>
<polyline data-coast="1" points="526.4,0.0 537.6,0.0 548.8,0.0 560.0,3.3 571.2,8.4 582.4,13.3 593.6,18.2 604.8,23.1 616.0,27.9 627.2,32.8 638.4,37.8 649.6,42.8 660.8,48.0 672.0,53.4 683.2,59.0 694.4,64.8 705.6,70.8 716.8,77.2 728.0,83.8 739.2,90.8 750.4,98.1 761.6,105.8 772.8,113.8 784.0,122.2 795.2,130.9 806.4,140.0 817.6,149.4 828.8,159.1 840.0,169.1 851.2,179.4 862.4,190.0 873.6,200.8 884.8,211.8 896.0,222.9 907.2,234.2 918.4,245.5 929.6,256.9 940.8,268.3 952.0,279.7 963.2,291.1 974.4,302.3 985.6,313.5 996.8,324.5 1008.0,335.3 1019.2,345.9 1030.4,356.3 1041.6,366.5 1052.8,376.4 1064.0,386.0 1075.2,395.4 1086.4,404.6 1097.6,413.5 1108.8,422.1 1120.0,430.4" fill="none" stroke="#1c2f3f" stroke-width="1.8"/>
<g stroke="#1c2f3f" stroke-width="0.8" opacity="0.55"><line x1="548.8" y1="0.0" x2="546.8" y2="6.7"/><line x1="582.4" y1="13.3" x2="579.6" y2="19.7"/><line x1="616.0" y1="27.9" x2="613.2" y2="34.4"/><line x1="649.6" y1="42.8" x2="646.7" y2="49.2"/><line x1="683.2" y1="59.0" x2="680.0" y2="65.2"/><line x1="716.8" y1="77.2" x2="713.2" y2="83.2"/><line x1="750.4" y1="98.1" x2="746.4" y2="103.9"/><line x1="784.0" y1="122.2" x2="779.7" y2="127.7"/><line x1="817.6" y1="149.4" x2="813.0" y2="154.7"/><line x1="851.2" y1="179.4" x2="846.4" y2="184.5"/><line x1="884.8" y1="211.8" x2="879.9" y2="216.7"/><line x1="918.4" y1="245.5" x2="913.4" y2="250.4"/><line x1="952.0" y1="279.7" x2="947.0" y2="284.7"/><line x1="985.6" y1="313.5" x2="980.7" y2="318.5"/><line x1="1019.2" y1="345.9" x2="1014.4" y2="351.0"/><line x1="1052.8" y1="376.4" x2="1048.2" y2="381.7"/><line x1="1086.4" y1="404.6" x2="1082.1" y2="410.1"/></g>
<g stroke="rgba(18,58,82,0.48)" stroke-width="1" stroke-dasharray="1.5 3.5" fill="none" data-contour="6">
<line x1="444.0" y1="0.0" x2="448.0" y2="2.6"/>
<line x1="448.0" y1="2.6" x2="455.3" y2="7.1"/>
<line x1="455.3" y1="7.1" x2="460.4" y2="10.3"/>
<line x1="460.4" y1="10.3" x2="466.9" y2="14.2"/>
<line x1="466.9" y1="14.2" x2="472.9" y2="17.8"/>
<line x1="472.9" y1="17.8" x2="478.9" y2="21.3"/>
<line x1="478.9" y1="21.3" x2="485.3" y2="25.0"/>
<line x1="485.3" y1="25.0" x2="491.4" y2="28.4"/>
<line x1="491.4" y1="28.4" x2="497.8" y2="32.0"/>
<line x1="497.8" y1="32.0" x2="504.5" y2="35.6"/>
<line x1="504.5" y1="35.6" x2="510.2" y2="38.6"/>
<line x1="510.2" y1="38.6" x2="518.1" y2="42.7"/>
<line x1="518.1" y1="42.7" x2="522.7" y2="45.0"/>
<line x1="522.7" y1="45.0" x2="532.2" y2="49.8"/>
<line x1="532.2" y1="49.8" x2="535.1" y2="51.2"/>
<line x1="535.1" y1="51.2" x2="547.0" y2="56.9"/>
<line x1="547.0" y1="56.9" x2="547.6" y2="57.1"/>
<line x1="547.6" y1="57.1" x2="560.0" y2="62.9"/>
<line x1="560.0" y1="62.9" x2="562.4" y2="64.0"/>
<line x1="562.4" y1="64.0" x2="572.4" y2="68.5"/>
<line x1="572.4" y1="68.5" x2="578.3" y2="71.1"/>
<line x1="578.3" y1="71.1" x2="584.9" y2="74.0"/>
<line x1="584.9" y1="74.0" x2="594.6" y2="78.2"/>
<line x1="594.6" y1="78.2" x2="597.3" y2="79.4"/>
<line x1="597.3" y1="79.4" x2="609.8" y2="84.8"/>
<line x1="609.8" y1="84.8" x2="610.9" y2="85.3"/>
<line x1="610.9" y1="85.3" x2="622.2" y2="90.2"/>
<line x1="622.2" y1="90.2" x2="627.3" y2="92.4"/>
<line x1="627.3" y1="92.4" x2="634.7" y2="95.7"/>
<line x1="634.7" y1="95.7" x2="643.2" y2="99.6"/>
<line x1="643.2" y1="99.6" x2="647.1" y2="101.3"/>
<line x1="647.1" y1="101.3" x2="658.7" y2="106.7"/>
<line x1="658.7" y1="106.7" x2="659.6" y2="107.0"/>
<line x1="659.6" y1="107.0" x2="672.0" y2="113.0"/>
<line x1="672.0" y1="113.0" x2="673.6" y2="113.8"/>
<line x1="673.6" y1="113.8" x2="684.4" y2="119.2"/>
<line x1="684.4" y1="119.2" x2="687.7" y2="120.9"/>
<line x1="687.7" y1="120.9" x2="696.9" y2="125.7"/>
<line x1="696.9" y1="125.7" x2="701.1" y2="128.0"/>
<line x1="701.1" y1="128.0" x2="709.3" y2="132.5"/>
<line x1="709.3" y1="132.5" x2="713.9" y2="135.1"/>
<line x1="713.9" y1="135.1" x2="721.8" y2="139.7"/>
<line x1="721.8" y1="139.7" x2="726.0" y2="142.2"/>
<line x1="726.0" y1="142.2" x2="734.2" y2="147.3"/>
<line x1="734.2" y1="147.3" x2="737.5" y2="149.3"/>
<line x1="737.5" y1="149.3" x2="746.7" y2="155.2"/>
<line x1="746.7" y1="155.2" x2="748.5" y2="156.4"/>
<line x1="748.5" y1="156.4" x2="759.0" y2="163.6"/>
<line x1="759.0" y1="163.6" x2="759.1" y2="163.6"/>
<line x1="759.1" y1="163.6" x2="769.0" y2="170.7"/>
<line x1="769.0" y1="170.7" x2="771.6" y2="172.5"/>
<line x1="771.6" y1="172.5" x2="778.7" y2="177.8"/>
<line x1="778.7" y1="177.8" x2="784.0" y2="181.8"/>
<line x1="784.0" y1="181.8" x2="788.0" y2="184.9"/>
<line x1="788.0" y1="184.9" x2="796.4" y2="191.5"/>
<line x1="796.4" y1="191.5" x2="797.1" y2="192.0"/>
<line x1="797.1" y1="192.0" x2="805.8" y2="199.1"/>
<line x1="805.8" y1="199.1" x2="808.9" y2="201.6"/>
<line x1="808.9" y1="201.6" x2="814.3" y2="206.2"/>
<line x1="814.3" y1="206.2" x2="821.3" y2="212.2"/>
<line x1="821.3" y1="212.2" x2="822.7" y2="213.3"/>
<line x1="822.7" y1="213.3" x2="830.8" y2="220.4"/>
<line x1="830.8" y1="220.4" x2="833.8" y2="223.1"/>
<line x1="833.8" y1="223.1" x2="838.7" y2="227.6"/>
<line x1="838.7" y1="227.6" x2="846.2" y2="234.4"/>
<line x1="846.2" y1="234.4" x2="846.5" y2="234.7"/>
<line x1="846.5" y1="234.7" x2="854.1" y2="241.8"/>
<line x1="854.1" y1="241.8" x2="858.7" y2="246.1"/>
<line x1="858.7" y1="246.1" x2="861.6" y2="248.9"/>
<line x1="861.6" y1="248.9" x2="869.1" y2="256.0"/>
<line x1="869.1" y1="256.0" x2="871.1" y2="258.0"/>
<line x1="871.1" y1="258.0" x2="876.4" y2="263.1"/>
<line x1="876.4" y1="263.1" x2="883.6" y2="270.2"/>
<line x1="883.6" y1="270.2" x2="883.6" y2="270.2"/>
<line x1="883.6" y1="270.2" x2="890.8" y2="277.3"/>
<line x1="890.8" y1="277.3" x2="896.0" y2="282.6"/>
<line x1="896.0" y1="282.6" x2="897.9" y2="284.4"/>
<line x1="897.9" y1="284.4" x2="904.9" y2="291.6"/>
<line x1="904.9" y1="291.6" x2="908.4" y2="295.1"/>
<line x1="908.4" y1="295.1" x2="911.9" y2="298.7"/>
<line x1="911.9" y1="298.7" x2="918.9" y2="305.8"/>
<line x1="918.9" y1="305.8" x2="920.9" y2="307.8"/>
<line x1="920.9" y1="307.8" x2="925.9" y2="312.9"/>
<line x1="925.9" y1="312.9" x2="932.8" y2="320.0"/>
<line x1="932.8" y1="320.0" x2="933.3" y2="320.6"/>
<line x1="933.3" y1="320.6" x2="939.7" y2="327.1"/>
<line x1="939.7" y1="327.1" x2="945.8" y2="333.4"/>
<line x1="945.8" y1="333.4" x2="946.6" y2="334.2"/>
<line x1="946.6" y1="334.2" x2="953.5" y2="341.3"/>
<line x1="953.5" y1="341.3" x2="958.2" y2="346.2"/>
<line x1="958.2" y1="346.2" x2="960.4" y2="348.4"/>
<line x1="960.4" y1="348.4" x2="967.4" y2="355.6"/>
<line x1="967.4" y1="355.6" x2="970.7" y2="358.9"/>
<line x1="970.7" y1="358.9" x2="974.4" y2="362.7"/>
<line x1="974.4" y1="362.7" x2="981.4" y2="369.8"/>
<line x1="981.4" y1="369.8" x2="983.1" y2="371.6"/>
<line x1="983.1" y1="371.6" x2="988.4" y2="376.9"/>
<line x1="988.4" y1="376.9" x2="995.5" y2="384.0"/>
<line x1="995.5" y1="384.0" x2="995.6" y2="384.1"/>
<line x1="995.6" y1="384.1" x2="1002.7" y2="391.1"/>
<line x1="1002.7" y1="391.1" x2="1008.0" y2="396.4"/>
<line x1="1008.0" y1="396.4" x2="1009.9" y2="398.2"/>
<line x1="1009.9" y1="398.2" x2="1017.3" y2="405.3"/>
<line x1="1017.3" y1="405.3" x2="1020.4" y2="408.4"/>
<line x1="1020.4" y1="408.4" x2="1024.8" y2="412.4"/>
<line x1="1024.8" y1="412.4" x2="1032.3" y2="419.6"/>
<line x1="1032.3" y1="419.6" x2="1032.9" y2="420.1"/>
<line x1="1032.9" y1="420.1" x2="1040.0" y2="426.7"/>
<line x1="1040.0" y1="426.7" x2="1045.3" y2="431.5"/>
<line x1="1045.3" y1="431.5" x2="1047.9" y2="433.8"/>
<line x1="1047.9" y1="433.8" x2="1055.9" y2="440.9"/>
<line x1="1055.9" y1="440.9" x2="1057.8" y2="442.6"/>
<line x1="1057.8" y1="442.6" x2="1064.2" y2="448.0"/>
<line x1="1064.2" y1="448.0" x2="1070.2" y2="453.2"/>
<line x1="1070.2" y1="453.2" x2="1072.6" y2="455.1"/>
<line x1="1072.6" y1="455.1" x2="1081.2" y2="462.2"/>
<line x1="1081.2" y1="462.2" x2="1082.7" y2="463.4"/>
<line x1="1082.7" y1="463.4" x2="1090.1" y2="469.3"/>
<line x1="1090.1" y1="469.3" x2="1095.1" y2="473.3"/>
<line x1="1095.1" y1="473.3" x2="1099.2" y2="476.4"/>
<line x1="1099.2" y1="476.4" x2="1107.6" y2="482.8"/>
<line x1="1107.6" y1="482.8" x2="1108.6" y2="483.6"/>
<line x1="1108.6" y1="483.6" x2="1118.3" y2="490.7"/>
<line x1="1118.3" y1="490.7" x2="1120.0" y2="491.9"/>
</g>
<g stroke="rgba(18,58,82,0.41)" stroke-width="1" stroke-dasharray="1.5 3.5" fill="none" data-contour="12">
<line x1="312.2" y1="0.0" x2="321.5" y2="7.1"/>
<line x1="321.5" y1="7.1" x2="323.6" y2="8.7"/>
<line x1="323.6" y1="8.7" x2="330.8" y2="14.2"/>
<line x1="330.8" y1="14.2" x2="336.0" y2="18.2"/>
<line x1="336.0" y1="18.2" x2="340.2" y2="21.3"/>
<line x1="340.2" y1="21.3" x2="348.4" y2="27.6"/>
<line x1="348.4" y1="27.6" x2="349.5" y2="28.4"/>
<line x1="349.5" y1="28.4" x2="359.0" y2="35.6"/>
<line x1="359.0" y1="35.6" x2="360.9" y2="37.0"/>
<line x1="360.9" y1="37.0" x2="368.5" y2="42.7"/>
<line x1="368.5" y1="42.7" x2="373.3" y2="46.2"/>
<line x1="373.3" y1="46.2" x2="378.2" y2="49.8"/>
<line x1="378.2" y1="49.8" x2="385.8" y2="55.4"/>
<line x1="385.8" y1="55.4" x2="387.9" y2="56.9"/>
<line x1="387.9" y1="56.9" x2="397.8" y2="64.0"/>
<line x1="397.8" y1="64.0" x2="398.2" y2="64.3"/>
<line x1="398.2" y1="64.3" x2="407.9" y2="71.1"/>
<line x1="407.9" y1="71.1" x2="410.7" y2="73.1"/>
<line x1="410.7" y1="73.1" x2="418.2" y2="78.2"/>
<line x1="418.2" y1="78.2" x2="423.1" y2="81.6"/>
<line x1="423.1" y1="81.6" x2="428.7" y2="85.3"/>
<line x1="428.7" y1="85.3" x2="435.6" y2="89.9"/>
<line x1="435.6" y1="89.9" x2="439.5" y2="92.4"/>
<line x1="439.5" y1="92.4" x2="448.0" y2="97.9"/>
<line x1="448.0" y1="97.9" x2="450.6" y2="99.6"/>
<line x1="450.6" y1="99.6" x2="460.4" y2="105.7"/>
<line x1="460.4" y1="105.7" x2="462.0" y2="106.7"/>
<line x1="462.0" y1="106.7" x2="472.9" y2="113.2"/>
<line x1="472.9" y1="113.2" x2="473.9" y2="113.8"/>
<line x1="473.9" y1="113.8" x2="485.3" y2="120.4"/>
<line x1="485.3" y1="120.4" x2="486.2" y2="120.9"/>
<line x1="486.2" y1="120.9" x2="497.8" y2="127.4"/>
<line x1="497.8" y1="127.4" x2="499.0" y2="128.0"/>
<line x1="499.0" y1="128.0" x2="510.2" y2="134.0"/>
<line x1="510.2" y1="134.0" x2="512.4" y2="135.1"/>
<line x1="512.4" y1="135.1" x2="522.7" y2="140.4"/>
<line x1="522.7" y1="140.4" x2="526.3" y2="142.2"/>
<line x1="526.3" y1="142.2" x2="535.1" y2="146.6"/>
<line x1="535.1" y1="146.6" x2="540.9" y2="149.3"/>
<line x1="540.9" y1="149.3" x2="547.6" y2="152.5"/>
<line x1="547.6" y1="152.5" x2="556.1" y2="156.4"/>
<line x1="556.1" y1="156.4" x2="560.0" y2="158.3"/>
<line x1="560.0" y1="158.3" x2="571.7" y2="163.6"/>
<line x1="571.7" y1="163.6" x2="572.4" y2="163.9"/>
<line x1="572.4" y1="163.9" x2="584.9" y2="169.4"/>
<line x1="584.9" y1="169.4" x2="587.9" y2="170.7"/>
<line x1="587.9" y1="170.7" x2="597.3" y2="174.8"/>
<line x1="597.3" y1="174.8" x2="604.3" y2="177.8"/>
<line x1="604.3" y1="177.8" x2="609.8" y2="180.2"/>
<line x1="609.8" y1="180.2" x2="620.6" y2="184.9"/>
<line x1="620.6" y1="184.9" x2="622.2" y2="185.6"/>
<line x1="622.2" y1="185.6" x2="634.7" y2="191.0"/>
<line x1="634.7" y1="191.0" x2="636.8" y2="192.0"/>
<line x1="636.8" y1="192.0" x2="647.1" y2="196.6"/>
<line x1="647.1" y1="196.6" x2="652.5" y2="199.1"/>
<line x1="652.5" y1="199.1" x2="659.6" y2="202.4"/>
<line x1="659.6" y1="202.4" x2="667.6" y2="206.2"/>
<line x1="667.6" y1="206.2" x2="672.0" y2="208.3"/>
<line x1="672.0" y1="208.3" x2="682.0" y2="213.3"/>
<line x1="682.0" y1="213.3" x2="684.4" y2="214.5"/>
<line x1="684.4" y1="214.5" x2="695.8" y2="220.4"/>
<line x1="695.8" y1="220.4" x2="696.9" y2="221.0"/>
<line x1="696.9" y1="221.0" x2="708.8" y2="227.6"/>
<line x1="708.8" y1="227.6" x2="709.3" y2="227.8"/>
<line x1="709.3" y1="227.8" x2="721.1" y2="234.7"/>
<line x1="721.1" y1="234.7" x2="721.8" y2="235.0"/>
<line x1="721.8" y1="235.0" x2="732.9" y2="241.8"/>
<line x1="732.9" y1="241.8" x2="734.2" y2="242.6"/>
<line x1="734.2" y1="242.6" x2="744.0" y2="248.9"/>
<line x1="744.0" y1="248.9" x2="746.7" y2="250.6"/>
<line x1="746.7" y1="250.6" x2="754.7" y2="256.0"/>
<line x1="754.7" y1="256.0" x2="759.1" y2="259.0"/>
<line x1="759.1" y1="259.0" x2="764.9" y2="263.1"/>
<line x1="764.9" y1="263.1" x2="771.6" y2="267.9"/>
<line x1="771.6" y1="267.9" x2="774.7" y2="270.2"/>
<line x1="774.7" y1="270.2" x2="784.0" y2="277.2"/>
<line x1="784.0" y1="277.2" x2="784.2" y2="277.3"/>
<line x1="784.2" y1="277.3" x2="793.3" y2="284.4"/>
<line x1="793.3" y1="284.4" x2="796.4" y2="287.0"/>
<line x1="796.4" y1="287.0" x2="802.1" y2="291.6"/>
<line x1="802.1" y1="291.6" x2="808.9" y2="297.2"/>
<line x1="808.9" y1="297.2" x2="810.6" y2="298.7"/>
<line x1="810.6" y1="298.7" x2="818.9" y2="305.8"/>
<line x1="818.9" y1="305.8" x2="821.3" y2="307.8"/>
<line x1="821.3" y1="307.8" x2="827.0" y2="312.9"/>
<line x1="827.0" y1="312.9" x2="833.8" y2="318.9"/>
<line x1="833.8" y1="318.9" x2="834.9" y2="320.0"/>
<line x1="834.9" y1="320.0" x2="842.6" y2="327.1"/>
<line x1="842.6" y1="327.1" x2="846.2" y2="330.4"/>
<line x1="846.2" y1="330.4" x2="850.2" y2="334.2"/>
<line x1="850.2" y1="334.2" x2="857.6" y2="341.3"/>
<line x1="857.6" y1="341.3" x2="858.7" y2="342.4"/>
<line x1="858.7" y1="342.4" x2="864.8" y2="348.4"/>
<line x1="864.8" y1="348.4" x2="871.1" y2="354.7"/>
<line x1="871.1" y1="354.7" x2="872.0" y2="355.6"/>
<line x1="872.0" y1="355.6" x2="879.0" y2="362.7"/>
<line x1="879.0" y1="362.7" x2="883.6" y2="367.4"/>
<line x1="883.6" y1="367.4" x2="885.9" y2="369.8"/>
<line x1="885.9" y1="369.8" x2="892.7" y2="376.9"/>
<line x1="892.7" y1="376.9" x2="896.0" y2="380.4"/>
<line x1="896.0" y1="380.4" x2="899.4" y2="384.0"/>
<line x1="899.4" y1="384.0" x2="906.0" y2="391.1"/>
<line x1="906.0" y1="391.1" x2="908.4" y2="393.8"/>
<line x1="908.4" y1="393.8" x2="912.6" y2="398.2"/>
<line x1="912.6" y1="398.2" x2="919.0" y2="405.3"/>
<line x1="919.0" y1="405.3" x2="920.9" y2="407.4"/>
<line x1="920.9" y1="407.4" x2="925.5" y2="412.4"/>
<line x1="925.5" y1="412.4" x2="931.9" y2="419.6"/>
<line x1="931.9" y1="419.6" x2="933.3" y2="421.1"/>
<line x1="933.3" y1="421.1" x2="938.3" y2="426.7"/>
<line x1="938.3" y1="426.7" x2="944.7" y2="433.8"/>
<line x1="944.7" y1="433.8" x2="945.8" y2="434.9"/>
<line x1="945.8" y1="434.9" x2="951.2" y2="440.9"/>
<line x1="951.2" y1="440.9" x2="957.6" y2="448.0"/>
<line x1="957.6" y1="448.0" x2="958.2" y2="448.6"/>
<line x1="958.2" y1="448.6" x2="964.2" y2="455.1"/>
<line x1="964.2" y1="455.1" x2="970.7" y2="462.1"/>
<line x1="970.7" y1="462.1" x2="970.8" y2="462.2"/>
<line x1="970.8" y1="462.2" x2="977.6" y2="469.3"/>
<line x1="977.6" y1="469.3" x2="983.1" y2="475.1"/>
<line x1="983.1" y1="475.1" x2="984.4" y2="476.4"/>
<line x1="984.4" y1="476.4" x2="991.4" y2="483.6"/>
<line x1="991.4" y1="483.6" x2="995.6" y2="487.7"/>
<line x1="995.6" y1="487.7" x2="998.6" y2="490.7"/>
<line x1="998.6" y1="490.7" x2="1006.0" y2="497.8"/>
<line x1="1006.0" y1="497.8" x2="1008.0" y2="499.7"/>
<line x1="1008.0" y1="499.7" x2="1013.6" y2="504.9"/>
<line x1="1013.6" y1="504.9" x2="1020.4" y2="511.1"/>
<line x1="1020.4" y1="511.1" x2="1021.5" y2="512.0"/>
<line x1="1021.5" y1="512.0" x2="1029.5" y2="519.1"/>
<line x1="1029.5" y1="519.1" x2="1032.9" y2="522.0"/>
<line x1="1032.9" y1="522.0" x2="1037.9" y2="526.2"/>
<line x1="1037.9" y1="526.2" x2="1045.3" y2="532.5"/>
<line x1="1045.3" y1="532.5" x2="1046.4" y2="533.3"/>
<line x1="1046.4" y1="533.3" x2="1055.2" y2="540.4"/>
<line x1="1055.2" y1="540.4" x2="1057.8" y2="542.5"/>
<line x1="1057.8" y1="542.5" x2="1064.2" y2="547.6"/>
<line x1="1064.2" y1="547.6" x2="1070.2" y2="552.2"/>
<line x1="1070.2" y1="552.2" x2="1073.5" y2="554.7"/>
<line x1="1073.5" y1="554.7" x2="1082.7" y2="561.6"/>
<line x1="1082.7" y1="561.6" x2="1083.0" y2="561.8"/>
<line x1="1083.0" y1="561.8" x2="1092.7" y2="568.9"/>
<line x1="1092.7" y1="568.9" x2="1095.1" y2="570.7"/>
<line x1="1095.1" y1="570.7" x2="1102.6" y2="576.0"/>
<line x1="1102.6" y1="576.0" x2="1107.6" y2="579.5"/>
<line x1="1107.6" y1="579.5" x2="1112.7" y2="583.1"/>
<line x1="1112.7" y1="583.1" x2="1120.0" y2="588.1"/>
</g>
<g stroke="rgba(18,58,82,0.34)" stroke-width="1" stroke-dasharray="1.5 3.5" fill="none" data-contour="18">
<line x1="195.7" y1="0.0" x2="199.1" y2="2.5"/>
<line x1="199.1" y1="2.5" x2="205.6" y2="7.1"/>
<line x1="205.6" y1="7.1" x2="211.6" y2="11.4"/>
<line x1="211.6" y1="11.4" x2="215.5" y2="14.2"/>
<line x1="215.5" y1="14.2" x2="224.0" y2="20.4"/>
<line x1="224.0" y1="20.4" x2="225.3" y2="21.3"/>
<line x1="225.3" y1="21.3" x2="235.0" y2="28.4"/>
<line x1="235.0" y1="28.4" x2="236.4" y2="29.5"/>
<line x1="236.4" y1="29.5" x2="244.6" y2="35.6"/>
<line x1="244.6" y1="35.6" x2="248.9" y2="38.7"/>
<line x1="248.9" y1="38.7" x2="254.2" y2="42.7"/>
<line x1="254.2" y1="42.7" x2="261.3" y2="48.0"/>
<line x1="261.3" y1="48.0" x2="263.7" y2="49.8"/>
<line x1="263.7" y1="49.8" x2="273.1" y2="56.9"/>
<line x1="273.1" y1="56.9" x2="273.8" y2="57.4"/>
<line x1="273.8" y1="57.4" x2="282.5" y2="64.0"/>
<line x1="282.5" y1="64.0" x2="286.2" y2="66.8"/>
<line x1="286.2" y1="66.8" x2="291.8" y2="71.1"/>
<line x1="291.8" y1="71.1" x2="298.7" y2="76.4"/>
<line x1="298.7" y1="76.4" x2="301.1" y2="78.2"/>
<line x1="301.1" y1="78.2" x2="310.4" y2="85.3"/>
<line x1="310.4" y1="85.3" x2="311.1" y2="85.9"/>
<line x1="311.1" y1="85.9" x2="319.6" y2="92.4"/>
<line x1="319.6" y1="92.4" x2="323.6" y2="95.5"/>
<line x1="323.6" y1="95.5" x2="328.9" y2="99.6"/>
<line x1="328.9" y1="99.6" x2="336.0" y2="105.0"/>
<line x1="336.0" y1="105.0" x2="338.2" y2="106.7"/>
<line x1="338.2" y1="106.7" x2="347.5" y2="113.8"/>
<line x1="347.5" y1="113.8" x2="348.4" y2="114.5"/>
<line x1="348.4" y1="114.5" x2="356.8" y2="120.9"/>
<line x1="356.8" y1="120.9" x2="360.9" y2="124.0"/>
<line x1="360.9" y1="124.0" x2="366.2" y2="128.0"/>
<line x1="366.2" y1="128.0" x2="373.3" y2="133.3"/>
<line x1="373.3" y1="133.3" x2="375.7" y2="135.1"/>
<line x1="375.7" y1="135.1" x2="385.3" y2="142.2"/>
<line x1="385.3" y1="142.2" x2="385.8" y2="142.6"/>
<line x1="385.8" y1="142.6" x2="395.1" y2="149.3"/>
<line x1="395.1" y1="149.3" x2="398.2" y2="151.6"/>
<line x1="398.2" y1="151.6" x2="405.0" y2="156.4"/>
<line x1="405.0" y1="156.4" x2="410.7" y2="160.5"/>
<line x1="410.7" y1="160.5" x2="415.1" y2="163.6"/>
<line x1="415.1" y1="163.6" x2="423.1" y2="169.1"/>
<line x1="423.1" y1="169.1" x2="425.4" y2="170.7"/>
<line x1="425.4" y1="170.7" x2="435.6" y2="177.5"/>
<line x1="435.6" y1="177.5" x2="436.0" y2="177.8"/>
<line x1="436.0" y1="177.8" x2="446.9" y2="184.9"/>
<line x1="446.9" y1="184.9" x2="448.0" y2="185.6"/>
<line x1="448.0" y1="185.6" x2="458.2" y2="192.0"/>
<line x1="458.2" y1="192.0" x2="460.4" y2="193.4"/>
<line x1="460.4" y1="193.4" x2="470.0" y2="199.1"/>
<line x1="470.0" y1="199.1" x2="472.9" y2="200.9"/>
<line x1="472.9" y1="200.9" x2="482.2" y2="206.2"/>
<line x1="482.2" y1="206.2" x2="485.3" y2="208.0"/>
<line x1="485.3" y1="208.0" x2="495.0" y2="213.3"/>
<line x1="495.0" y1="213.3" x2="497.8" y2="214.9"/>
<line x1="497.8" y1="214.9" x2="508.3" y2="220.4"/>
<line x1="508.3" y1="220.4" x2="510.2" y2="221.4"/>
<line x1="510.2" y1="221.4" x2="522.3" y2="227.6"/>
<line x1="522.3" y1="227.6" x2="522.7" y2="227.7"/>
<line x1="522.7" y1="227.7" x2="535.1" y2="233.8"/>
<line x1="535.1" y1="233.8" x2="536.9" y2="234.7"/>
<line x1="536.9" y1="234.7" x2="547.6" y2="239.7"/>
<line x1="547.6" y1="239.7" x2="552.2" y2="241.8"/>
<line x1="552.2" y1="241.8" x2="560.0" y2="245.3"/>
<line x1="560.0" y1="245.3" x2="568.0" y2="248.9"/>
<line x1="568.0" y1="248.9" x2="572.4" y2="250.9"/>
<line x1="572.4" y1="250.9" x2="584.2" y2="256.0"/>
<line x1="584.2" y1="256.0" x2="584.9" y2="256.3"/>
<line x1="584.9" y1="256.3" x2="597.3" y2="261.7"/>
<line x1="597.3" y1="261.7" x2="600.7" y2="263.1"/>
<line x1="600.7" y1="263.1" x2="609.8" y2="267.0"/>
<line x1="609.8" y1="267.0" x2="617.2" y2="270.2"/>
<line x1="617.2" y1="270.2" x2="622.2" y2="272.4"/>
<line x1="622.2" y1="272.4" x2="633.4" y2="277.3"/>
<line x1="633.4" y1="277.3" x2="634.7" y2="277.9"/>
<line x1="634.7" y1="277.9" x2="647.1" y2="283.5"/>
<line x1="647.1" y1="283.5" x2="649.2" y2="284.4"/>
<line x1="649.2" y1="284.4" x2="659.6" y2="289.2"/>
<line x1="659.6" y1="289.2" x2="664.4" y2="291.6"/>
<line x1="664.4" y1="291.6" x2="672.0" y2="295.2"/>
<line x1="672.0" y1="295.2" x2="678.8" y2="298.7"/>
<line x1="678.8" y1="298.7" x2="684.4" y2="301.5"/>
<line x1="684.4" y1="301.5" x2="692.5" y2="305.8"/>
<line x1="692.5" y1="305.8" x2="696.9" y2="308.1"/>
<line x1="696.9" y1="308.1" x2="705.5" y2="312.9"/>
<line x1="705.5" y1="312.9" x2="709.3" y2="315.1"/>
<line x1="709.3" y1="315.1" x2="717.7" y2="320.0"/>
<line x1="717.7" y1="320.0" x2="721.8" y2="322.4"/>
<line x1="721.8" y1="322.4" x2="729.3" y2="327.1"/>
<line x1="729.3" y1="327.1" x2="734.2" y2="330.2"/>
<line x1="734.2" y1="330.2" x2="740.2" y2="334.2"/>
<line x1="740.2" y1="334.2" x2="746.7" y2="338.5"/>
<line x1="746.7" y1="338.5" x2="750.7" y2="341.3"/>
<line x1="750.7" y1="341.3" x2="759.1" y2="347.4"/>
<line x1="759.1" y1="347.4" x2="760.6" y2="348.4"/>
<line x1="760.6" y1="348.4" x2="770.0" y2="355.6"/>
<line x1="770.0" y1="355.6" x2="771.6" y2="356.8"/>
<line x1="771.6" y1="356.8" x2="778.9" y2="362.7"/>
<line x1="778.9" y1="362.7" x2="784.0" y2="366.8"/>
<line x1="784.0" y1="366.8" x2="787.5" y2="369.8"/>
<line x1="787.5" y1="369.8" x2="795.7" y2="376.9"/>
<line x1="795.7" y1="376.9" x2="796.4" y2="377.5"/>
<line x1="796.4" y1="377.5" x2="803.5" y2="384.0"/>
<line x1="803.5" y1="384.0" x2="808.9" y2="389.0"/>
<line x1="808.9" y1="389.0" x2="811.1" y2="391.1"/>
<line x1="811.1" y1="391.1" x2="818.3" y2="398.2"/>
<line x1="818.3" y1="398.2" x2="821.3" y2="401.3"/>
<line x1="821.3" y1="401.3" x2="825.3" y2="405.3"/>
<line x1="825.3" y1="405.3" x2="832.0" y2="412.4"/>
<line x1="832.0" y1="412.4" x2="833.8" y2="414.4"/>
<line x1="833.8" y1="414.4" x2="838.5" y2="419.6"/>
<line x1="838.5" y1="419.6" x2="844.8" y2="426.7"/>
<line x1="844.8" y1="426.7" x2="846.2" y2="428.3"/>
<line x1="846.2" y1="428.3" x2="850.9" y2="433.8"/>
<line x1="850.9" y1="433.8" x2="856.9" y2="440.9"/>
<line x1="856.9" y1="440.9" x2="858.7" y2="443.1"/>
<line x1="858.7" y1="443.1" x2="862.7" y2="448.0"/>
<line x1="862.7" y1="448.0" x2="868.5" y2="455.1"/>
<line x1="868.5" y1="455.1" x2="871.1" y2="458.4"/>
<line x1="871.1" y1="458.4" x2="874.2" y2="462.2"/>
<line x1="874.2" y1="462.2" x2="879.9" y2="469.3"/>
<line x1="879.9" y1="469.3" x2="883.6" y2="473.8"/>
<line x1="883.6" y1="473.8" x2="885.7" y2="476.4"/>
<line x1="885.7" y1="476.4" x2="891.5" y2="483.6"/>
<line x1="891.5" y1="483.6" x2="896.0" y2="488.9"/>
<line x1="896.0" y1="488.9" x2="897.5" y2="490.7"/>
<line x1="897.5" y1="490.7" x2="903.7" y2="497.8"/>
<line x1="903.7" y1="497.8" x2="908.4" y2="503.1"/>
<line x1="908.4" y1="503.1" x2="910.1" y2="504.9"/>
<line x1="910.1" y1="504.9" x2="916.7" y2="512.0"/>
<line x1="916.7" y1="512.0" x2="920.9" y2="516.3"/>
<line x1="920.9" y1="516.3" x2="923.6" y2="519.1"/>
<line x1="923.6" y1="519.1" x2="930.9" y2="526.2"/>
<line x1="930.9" y1="526.2" x2="933.3" y2="528.6"/>
<line x1="933.3" y1="528.6" x2="938.4" y2="533.3"/>
<line x1="938.4" y1="533.3" x2="945.8" y2="540.0"/>
<line x1="945.8" y1="540.0" x2="946.3" y2="540.4"/>
<line x1="946.3" y1="540.4" x2="954.4" y2="547.6"/>
<line x1="954.4" y1="547.6" x2="958.2" y2="550.7"/>
<line x1="958.2" y1="550.7" x2="962.9" y2="554.7"/>
<line x1="962.9" y1="554.7" x2="970.7" y2="561.1"/>
<line x1="970.7" y1="561.1" x2="971.5" y2="561.8"/>
<line x1="971.5" y1="561.8" x2="980.4" y2="568.9"/>
<line x1="980.4" y1="568.9" x2="983.1" y2="571.0"/>
<line x1="983.1" y1="571.0" x2="989.4" y2="576.0"/>
<line x1="989.4" y1="576.0" x2="995.6" y2="580.8"/>
<line x1="995.6" y1="580.8" x2="998.6" y2="583.1"/>
<line x1="998.6" y1="583.1" x2="1007.8" y2="590.2"/>
<line x1="1007.8" y1="590.2" x2="1008.0" y2="590.4"/>
<line x1="1008.0" y1="590.4" x2="1017.1" y2="597.3"/>
<line x1="1017.1" y1="597.3" x2="1020.4" y2="599.8"/>
<line x1="1020.4" y1="599.8" x2="1026.5" y2="604.4"/>
<line x1="1026.5" y1="604.4" x2="1032.9" y2="609.3"/>
<line x1="1032.9" y1="609.3" x2="1035.9" y2="611.6"/>
<line x1="1035.9" y1="611.6" x2="1045.3" y2="618.7"/>
<line x1="1045.3" y1="618.7" x2="1045.3" y2="618.7"/>
<line x1="1045.3" y1="618.7" x2="1054.8" y2="625.8"/>
<line x1="1054.8" y1="625.8" x2="1057.8" y2="628.0"/>
<line x1="1057.8" y1="628.0" x2="1064.4" y2="632.9"/>
<line x1="1064.4" y1="632.9" x2="1070.2" y2="637.3"/>
<line x1="1070.2" y1="637.3" x2="1074.0" y2="640.0"/>
</g>
<g stroke="rgba(18,58,82,0.27)" stroke-width="1" stroke-dasharray="1.5 3.5" fill="none" data-contour="24">
<line x1="79.3" y1="0.0" x2="87.1" y2="5.6"/>
<line x1="87.1" y1="5.6" x2="89.2" y2="7.1"/>
<line x1="89.2" y1="7.1" x2="99.1" y2="14.2"/>
<line x1="99.1" y1="14.2" x2="99.6" y2="14.6"/>
<line x1="99.6" y1="14.6" x2="109.1" y2="21.3"/>
<line x1="109.1" y1="21.3" x2="112.0" y2="23.4"/>
<line x1="112.0" y1="23.4" x2="119.2" y2="28.4"/>
<line x1="119.2" y1="28.4" x2="124.4" y2="32.1"/>
<line x1="124.4" y1="32.1" x2="129.4" y2="35.6"/>
<line x1="129.4" y1="35.6" x2="136.9" y2="40.8"/>
<line x1="136.9" y1="40.8" x2="139.5" y2="42.7"/>
<line x1="139.5" y1="42.7" x2="149.3" y2="49.5"/>
<line x1="149.3" y1="49.5" x2="149.7" y2="49.8"/>
<line x1="149.7" y1="49.8" x2="159.9" y2="56.9"/>
<line x1="159.9" y1="56.9" x2="161.8" y2="58.2"/>
<line x1="161.8" y1="58.2" x2="170.0" y2="64.0"/>
<line x1="170.0" y1="64.0" x2="174.2" y2="67.0"/>
<line x1="174.2" y1="67.0" x2="180.1" y2="71.1"/>
<line x1="180.1" y1="71.1" x2="186.7" y2="75.8"/>
<line x1="186.7" y1="75.8" x2="190.1" y2="78.2"/>
<line x1="190.1" y1="78.2" x2="199.1" y2="84.7"/>
<line x1="199.1" y1="84.7" x2="200.0" y2="85.3"/>
<line x1="200.0" y1="85.3" x2="209.8" y2="92.4"/>
<line x1="209.8" y1="92.4" x2="211.6" y2="93.7"/>
<line x1="211.6" y1="93.7" x2="219.6" y2="99.6"/>
<line x1="219.6" y1="99.6" x2="224.0" y2="102.8"/>
<line x1="224.0" y1="102.8" x2="229.2" y2="106.7"/>
<line x1="229.2" y1="106.7" x2="236.4" y2="112.1"/>
<line x1="236.4" y1="112.1" x2="238.7" y2="113.8"/>
<line x1="238.7" y1="113.8" x2="248.1" y2="120.9"/>
<line x1="248.1" y1="120.9" x2="248.9" y2="121.5"/>
<line x1="248.9" y1="121.5" x2="257.3" y2="128.0"/>
<line x1="257.3" y1="128.0" x2="261.3" y2="131.1"/>
<line x1="261.3" y1="131.1" x2="266.4" y2="135.1"/>
<line x1="266.4" y1="135.1" x2="273.8" y2="140.9"/>
<line x1="273.8" y1="140.9" x2="275.4" y2="142.2"/>
<line x1="275.4" y1="142.2" x2="284.3" y2="149.3"/>
<line x1="284.3" y1="149.3" x2="286.2" y2="150.9"/>
<line x1="286.2" y1="150.9" x2="293.1" y2="156.4"/>
<line x1="293.1" y1="156.4" x2="298.7" y2="161.1"/>
<line x1="298.7" y1="161.1" x2="301.7" y2="163.6"/>
<line x1="301.7" y1="163.6" x2="310.2" y2="170.7"/>
<line x1="310.2" y1="170.7" x2="311.1" y2="171.4"/>
<line x1="311.1" y1="171.4" x2="318.7" y2="177.8"/>
<line x1="318.7" y1="177.8" x2="323.6" y2="182.0"/>
<line x1="323.6" y1="182.0" x2="327.0" y2="184.9"/>
<line x1="327.0" y1="184.9" x2="335.4" y2="192.0"/>
<line x1="335.4" y1="192.0" x2="336.0" y2="192.5"/>
<line x1="336.0" y1="192.5" x2="343.7" y2="199.1"/>
<line x1="343.7" y1="199.1" x2="348.4" y2="203.2"/>
<line x1="348.4" y1="203.2" x2="352.1" y2="206.2"/>
<line x1="352.1" y1="206.2" x2="360.6" y2="213.3"/>
<line x1="360.6" y1="213.3" x2="360.9" y2="213.6"/>
<line x1="360.9" y1="213.6" x2="369.2" y2="220.4"/>
<line x1="369.2" y1="220.4" x2="373.3" y2="223.8"/>
<line x1="373.3" y1="223.8" x2="378.0" y2="227.6"/>
<line x1="378.0" y1="227.6" x2="385.8" y2="233.6"/>
<line x1="385.8" y1="233.6" x2="387.2" y2="234.7"/>
<line x1="387.2" y1="234.7" x2="396.7" y2="241.8"/>
<line x1="396.7" y1="241.8" x2="398.2" y2="242.9"/>
<line x1="398.2" y1="242.9" x2="406.8" y2="248.9"/>
<line x1="406.8" y1="248.9" x2="410.7" y2="251.6"/>
<line x1="410.7" y1="251.6" x2="417.3" y2="256.0"/>
<line x1="417.3" y1="256.0" x2="423.1" y2="259.7"/>
<line x1="423.1" y1="259.7" x2="428.5" y2="263.1"/>
<line x1="428.5" y1="263.1" x2="435.6" y2="267.4"/>
<line x1="435.6" y1="267.4" x2="440.4" y2="270.2"/>
<line x1="440.4" y1="270.2" x2="448.0" y2="274.6"/>
<line x1="448.0" y1="274.6" x2="452.9" y2="277.3"/>
<line x1="452.9" y1="277.3" x2="460.4" y2="281.4"/>
<line x1="460.4" y1="281.4" x2="466.1" y2="284.4"/>
<line x1="466.1" y1="284.4" x2="472.9" y2="288.0"/>
<line x1="472.9" y1="288.0" x2="479.9" y2="291.6"/>
<line x1="479.9" y1="291.6" x2="485.3" y2="294.3"/>
<line x1="485.3" y1="294.3" x2="494.3" y2="298.7"/>
<line x1="494.3" y1="298.7" x2="497.8" y2="300.3"/>
<line x1="497.8" y1="300.3" x2="509.2" y2="305.8"/>
<line x1="509.2" y1="305.8" x2="510.2" y2="306.3"/>
<line x1="510.2" y1="306.3" x2="522.7" y2="312.0"/>
<line x1="522.7" y1="312.0" x2="524.5" y2="312.9"/>
<line x1="524.5" y1="312.9" x2="535.1" y2="317.7"/>
<line x1="535.1" y1="317.7" x2="540.2" y2="320.0"/>
<line x1="540.2" y1="320.0" x2="547.6" y2="323.3"/>
<line x1="547.6" y1="323.3" x2="556.2" y2="327.1"/>
<line x1="556.2" y1="327.1" x2="560.0" y2="328.8"/>
<line x1="560.0" y1="328.8" x2="572.2" y2="334.2"/>
<line x1="572.2" y1="334.2" x2="572.4" y2="334.3"/>
<line x1="572.4" y1="334.3" x2="584.9" y2="339.8"/>
<line x1="584.9" y1="339.8" x2="588.3" y2="341.3"/>
<line x1="588.3" y1="341.3" x2="597.3" y2="345.4"/>
<line x1="597.3" y1="345.4" x2="604.2" y2="348.4"/>
<line x1="604.2" y1="348.4" x2="609.8" y2="351.0"/>
<line x1="609.8" y1="351.0" x2="619.6" y2="355.6"/>
<line x1="619.6" y1="355.6" x2="622.2" y2="356.8"/>
<line x1="622.2" y1="356.8" x2="634.5" y2="362.7"/>
<line x1="634.5" y1="362.7" x2="634.7" y2="362.8"/>
<line x1="634.7" y1="362.8" x2="647.1" y2="369.0"/>
<line x1="647.1" y1="369.0" x2="648.6" y2="369.8"/>
<line x1="648.6" y1="369.8" x2="659.6" y2="375.6"/>
<line x1="659.6" y1="375.6" x2="661.9" y2="376.9"/>
<line x1="661.9" y1="376.9" x2="672.0" y2="382.6"/>
<line x1="672.0" y1="382.6" x2="674.3" y2="384.0"/>
<line x1="674.3" y1="384.0" x2="684.4" y2="390.2"/>
<line x1="684.4" y1="390.2" x2="685.8" y2="391.1"/>
<line x1="685.8" y1="391.1" x2="696.5" y2="398.2"/>
<line x1="696.5" y1="398.2" x2="696.9" y2="398.5"/>
<line x1="696.9" y1="398.5" x2="706.4" y2="405.3"/>
<line x1="706.4" y1="405.3" x2="709.3" y2="407.6"/>
<line x1="709.3" y1="407.6" x2="715.5" y2="412.4"/>
<line x1="715.5" y1="412.4" x2="721.8" y2="417.7"/>
<line x1="721.8" y1="417.7" x2="723.9" y2="419.6"/>
<line x1="723.9" y1="419.6" x2="731.6" y2="426.7"/>
<line x1="731.6" y1="426.7" x2="734.2" y2="429.2"/>
<line x1="734.2" y1="429.2" x2="738.8" y2="433.8"/>
<line x1="738.8" y1="433.8" x2="745.4" y2="440.9"/>
<line x1="745.4" y1="440.9" x2="746.7" y2="442.3"/>
<line x1="746.7" y1="442.3" x2="751.6" y2="448.0"/>
<line x1="751.6" y1="448.0" x2="757.3" y2="455.1"/>
<line x1="757.3" y1="455.1" x2="759.1" y2="457.4"/>
<line x1="759.1" y1="457.4" x2="762.7" y2="462.2"/>
<line x1="762.7" y1="462.2" x2="767.8" y2="469.3"/>
<line x1="767.8" y1="469.3" x2="771.6" y2="474.6"/>
<line x1="771.6" y1="474.6" x2="772.8" y2="476.4"/>
<line x1="772.8" y1="476.4" x2="777.6" y2="483.6"/>
<line x1="777.6" y1="483.6" x2="782.5" y2="490.7"/>
<line x1="782.5" y1="490.7" x2="784.0" y2="492.7"/>
<line x1="784.0" y1="492.7" x2="787.5" y2="497.8"/>
<line x1="787.5" y1="497.8" x2="792.8" y2="504.9"/>
<line x1="792.8" y1="504.9" x2="796.4" y2="509.5"/>
<line x1="796.4" y1="509.5" x2="798.4" y2="512.0"/>
<line x1="798.4" y1="512.0" x2="804.6" y2="519.1"/>
<line x1="804.6" y1="519.1" x2="808.9" y2="523.7"/>
<line x1="808.9" y1="523.7" x2="811.3" y2="526.2"/>
<line x1="811.3" y1="526.2" x2="818.7" y2="533.3"/>
<line x1="818.7" y1="533.3" x2="821.3" y2="535.6"/>
<line x1="821.3" y1="535.6" x2="826.9" y2="540.4"/>
<line x1="826.9" y1="540.4" x2="833.8" y2="545.8"/>
<line x1="833.8" y1="545.8" x2="835.9" y2="547.6"/>
<line x1="835.9" y1="547.6" x2="845.6" y2="554.7"/>
<line x1="845.6" y1="554.7" x2="846.2" y2="555.1"/>
<line x1="846.2" y1="555.1" x2="855.9" y2="561.8"/>
<line x1="855.9" y1="561.8" x2="858.7" y2="563.6"/>
<line x1="858.7" y1="563.6" x2="866.6" y2="568.9"/>
<line x1="866.6" y1="568.9" x2="871.1" y2="571.7"/>
<line x1="871.1" y1="571.7" x2="877.7" y2="576.0"/>
<line x1="877.7" y1="576.0" x2="883.6" y2="579.6"/>
<line x1="883.6" y1="579.6" x2="889.0" y2="583.1"/>
<line x1="889.0" y1="583.1" x2="896.0" y2="587.4"/>
<line x1="896.0" y1="587.4" x2="900.3" y2="590.2"/>
<line x1="900.3" y1="590.2" x2="908.4" y2="595.3"/>
<line x1="908.4" y1="595.3" x2="911.5" y2="597.3"/>
<line x1="911.5" y1="597.3" x2="920.9" y2="603.3"/>
<line x1="920.9" y1="603.3" x2="922.6" y2="604.4"/>
<line x1="922.6" y1="604.4" x2="933.3" y2="611.5"/>
<line x1="933.3" y1="611.5" x2="933.4" y2="611.6"/>
<line x1="933.4" y1="611.6" x2="943.9" y2="618.7"/>
<line x1="943.9" y1="618.7" x2="945.8" y2="619.9"/>
<line x1="945.8" y1="619.9" x2="954.2" y2="625.8"/>
<line x1="954.2" y1="625.8" x2="958.2" y2="628.6"/>
<line x1="958.2" y1="628.6" x2="964.2" y2="632.9"/>
<line x1="964.2" y1="632.9" x2="970.7" y2="637.6"/>
<line x1="970.7" y1="637.6" x2="974.0" y2="640.0"/>
</g>
<g fill="#2c4a5e" font-size="13" font-style="italic" text-anchor="middle" data-soundings="1">
<text x="121.2" y="49.8">25</text>
<text x="194.5" y="49.5">22</text>
<text x="259.0" y="51.8">18</text>
<text x="338.3" y="35.4">13</text>
<text x="534.2" y="53.5">6</text>
<text x="51.1" y="132.8">36</text>
<text x="103.7" y="134.3">33</text>
<text x="190.4" y="134.8">28</text>
<text x="259.8" y="107.6">22</text>
<text x="347.7" y="113.4">18</text>
<text x="434.0" y="119.5">14</text>
<text x="512.6" y="107.5">10</text>
<text x="588.6" y="105.7">8</text>
<text x="670.6" y="121.2">7</text>
<text x="56.0" y="191.3">40</text>
<text x="110.2" y="198.4">37</text>
<text x="204.7" y="190.6">31</text>
<text x="290.1" y="204.1">27</text>
<text x="368.7" y="199.3">23</text>
<text x="427.3" y="210.4">21</text>
<text x="499.8" y="212.5">18</text>
<text x="614.7" y="187.7">12</text>
<text x="663.0" y="193.2">11</text>
<text x="744.7" y="205.8">9</text>
<text x="820.6" y="199.9">5</text>
<text x="111.5" y="274.9">40</text>
<text x="178.4" y="286.0">35</text>
<text x="296.8" y="286.9">30</text>
<text x="343.0" y="287.2">28</text>
<text x="429.9" y="277.8">25</text>
<text x="511.0" y="290.9">23</text>
<text x="614.8" y="289.9">19</text>
<text x="699.6" y="287.6">16</text>
<text x="744.0" y="292.6">15</text>
<text x="844.3" y="287.1">9</text>
<text x="910.5" y="290.3">6</text>
<text x="123.9" y="352.7">42</text>
<text x="220.1" y="348.5">35</text>
<text x="270.3" y="360.8">34</text>
<text x="350.5" y="362.1">33</text>
<text x="439.6" y="361.9">30</text>
<text x="540.4" y="360.7">27</text>
<text x="597.1" y="355.4">25</text>
<text x="689.6" y="355.5">22</text>
<text x="745.9" y="359.7">19</text>
<text x="859.7" y="352.6">13</text>
<text x="902.1" y="355.3">10</text>
<text x="978.7" y="346.1">5</text>
<text x="135.3" y="438.1">52</text>
<text x="210.4" y="424.3">45</text>
<text x="267.4" y="437.2">44</text>
<text x="380.3" y="449.5">40</text>
<text x="450.5" y="447.5">37</text>
<text x="513.0" y="428.5">33</text>
<text x="592.2" y="454.1">31</text>
<text x="697.4" y="438.6">26</text>
<text x="939.1" y="449.0">13</text>
<text x="1013.1" y="440.3">8</text>
<text x="118.1" y="516.4">63</text>
<text x="191.8" y="510.1">58</text>
<text x="274.2" y="511.4">53</text>
<text x="363.8" y="509.4">47</text>
<text x="426.3" y="504.1">42</text>
<text x="509.1" y="516.5">38</text>
<text x="614.1" y="512.8">32</text>
<text x="658.1" y="505.6">30</text>
<text x="906.8" y="528.9">19</text>
<text x="1001.2" y="528.2">14</text>
<text x="1070.3" y="531.0">11</text>
<text x="52.9" y="591.8">74</text>
<text x="132.0" y="588.7">69</text>
<text x="222.3" y="598.7">64</text>
<text x="283.7" y="608.7">61</text>
<text x="341.2" y="590.4">55</text>
<text x="420.7" y="604.5">51</text>
<text x="518.2" y="588.3">42</text>
<text x="592.6" y="588.6">38</text>
<text x="765.5" y="594.3">30</text>
<text x="854.4" y="609.1">28</text>
<text x="937.1" y="596.6">23</text>
<text x="996.6" y="587.6">18</text>
</g>
<g data-course="1">
<line x1="56.0" y1="576.0" x2="386.4" y2="492.8" stroke="#1c2f3f" stroke-width="1.6" stroke-dasharray="9 6"/>
<text x="221.2" y="526.4" font-size="12.5" letter-spacing="1" fill="#1c2f3f" text-anchor="middle" transform="rotate(-23.8 221.2 534.4)">077° M</text>
<line x1="386.4" y1="492.8" x2="627.2" y2="320.0" stroke="#1c2f3f" stroke-width="1.6" stroke-dasharray="9 6"/>
<text x="506.8" y="398.4" font-size="12.5" letter-spacing="1" fill="#1c2f3f" text-anchor="middle" transform="rotate(-51.5 506.8 406.4)">050° M</text>
<line x1="627.2" y1="320.0" x2="896.0" y2="214.4" stroke="#1c2f3f" stroke-width="1.6" stroke-dasharray="9 6"/>
<text x="761.6" y="259.2" font-size="12.5" letter-spacing="1" fill="#1c2f3f" text-anchor="middle" transform="rotate(-34.5 761.6 267.2)">067° M</text>
<line x1="896.0" y1="214.4" x2="946.4" y2="185.6" stroke="#1c2f3f" stroke-width="1.6" stroke-dasharray="9 6"/>
<text x="921.2" y="192" font-size="12.5" letter-spacing="1" fill="#1c2f3f" text-anchor="middle" transform="rotate(-45.0 921.2 200.0)">056° M</text>
<g data-station="1">
<rect x="47.5" y="567.5" width="17" height="17" transform="rotate(45 56.0 576.0)" fill="#f6f1e4" stroke="#1c2f3f" stroke-width="1.5"/>
<text x="56.0" y="580.0" font-size="11" font-weight="bold" text-anchor="middle" fill="#1c2f3f" font-family="Arial, sans-serif">1</text>
</g>
<g data-station="2">
<rect x="377.9" y="484.3" width="17" height="17" transform="rotate(45 386.4 492.8)" fill="#f6f1e4" stroke="#1c2f3f" stroke-width="1.5"/>
<text x="386.4" y="496.8" font-size="11" font-weight="bold" text-anchor="middle" fill="#1c2f3f" font-family="Arial, sans-serif">2</text>
</g>
<g data-station="3">
<rect x="618.7" y="311.5" width="17" height="17" transform="rotate(45 627.2 320.0)" fill="#f6f1e4" stroke="#1c2f3f" stroke-width="1.5"/>
<text x="627.2" y="324.0" font-size="11" font-weight="bold" text-anchor="middle" fill="#1c2f3f" font-family="Arial, sans-serif">3</text>
</g>
<g data-station="4">
<rect x="887.5" y="205.9" width="17" height="17" transform="rotate(45 896.0 214.4)" fill="#f6f1e4" stroke="#1c2f3f" stroke-width="1.5"/>
<text x="896.0" y="218.4" font-size="11" font-weight="bold" text-anchor="middle" fill="#1c2f3f" font-family="Arial, sans-serif">4</text>
</g>
<circle cx="946.4" cy="185.6" r="5" fill="#2e6e4e"/>
<circle cx="946.4" cy="185.6" r="10" fill="none" stroke="#2e6e4e" stroke-width="1.4"/>
<text x="946.4" y="165.6" font-size="13.5" font-weight="bold" letter-spacing="1.5" fill="#2e6e4e" font-family="Arial, sans-serif" text-anchor="middle">HARBORLINE YARD</text>
<text x="946.4" y="211.6" font-size="10.5" font-style="italic" fill="#1c2f3f" text-anchor="middle">412 Dockside Ln</text>
</g>
<g data-rose="1" stroke="#1c2f3f" fill="#1c2f3f" font-family="Arial, sans-serif">
<circle cx="784" cy="473.6" r="74" fill="none" stroke-width="1"/>
<circle cx="784" cy="473.6" r="52" fill="none" stroke-width="0.6"/>
<line x1="784.0" y1="409.6" x2="784.0" y2="399.6" stroke-width="1.2"/>
<line x1="796.0" y1="405.6" x2="796.8" y2="400.7" stroke-width="0.7"/>
<line x1="807.6" y1="408.8" x2="809.3" y2="404.1" stroke-width="0.7"/>
<line x1="816.0" y1="418.2" x2="821.0" y2="409.5" stroke-width="1.2"/>
<line x1="828.4" y1="420.7" x2="831.6" y2="416.9" stroke-width="0.7"/>
<line x1="836.9" y1="429.2" x2="840.7" y2="426.0" stroke-width="0.7"/>
<line x1="839.4" y1="441.6" x2="848.1" y2="436.6" stroke-width="1.2"/>
<line x1="848.8" y1="450.0" x2="853.5" y2="448.3" stroke-width="0.7"/>
<line x1="852.0" y1="461.6" x2="856.9" y2="460.8" stroke-width="0.7"/>
<line x1="848.0" y1="473.6" x2="858.0" y2="473.6" stroke-width="1.2"/>
<line x1="852.0" y1="485.6" x2="856.9" y2="486.4" stroke-width="0.7"/>
<line x1="848.8" y1="497.2" x2="853.5" y2="498.9" stroke-width="0.7"/>
<line x1="839.4" y1="505.6" x2="848.1" y2="510.6" stroke-width="1.2"/>
<line x1="836.9" y1="518.0" x2="840.7" y2="521.2" stroke-width="0.7"/>
<line x1="828.4" y1="526.5" x2="831.6" y2="530.3" stroke-width="0.7"/>
<line x1="816.0" y1="529.0" x2="821.0" y2="537.7" stroke-width="1.2"/>
<line x1="807.6" y1="538.4" x2="809.3" y2="543.1" stroke-width="0.7"/>
<line x1="796.0" y1="541.6" x2="796.8" y2="546.5" stroke-width="0.7"/>
<line x1="784.0" y1="537.6" x2="784.0" y2="547.6" stroke-width="1.2"/>
<line x1="772.0" y1="541.6" x2="771.2" y2="546.5" stroke-width="0.7"/>
<line x1="760.4" y1="538.4" x2="758.7" y2="543.1" stroke-width="0.7"/>
<line x1="752.0" y1="529.0" x2="747.0" y2="537.7" stroke-width="1.2"/>
<line x1="739.6" y1="526.5" x2="736.4" y2="530.3" stroke-width="0.7"/>
<line x1="731.1" y1="518.0" x2="727.3" y2="521.2" stroke-width="0.7"/>
<line x1="728.6" y1="505.6" x2="719.9" y2="510.6" stroke-width="1.2"/>
<line x1="719.2" y1="497.2" x2="714.5" y2="498.9" stroke-width="0.7"/>
<line x1="716.0" y1="485.6" x2="711.1" y2="486.4" stroke-width="0.7"/>
<line x1="720.0" y1="473.6" x2="710.0" y2="473.6" stroke-width="1.2"/>
<line x1="716.0" y1="461.6" x2="711.1" y2="460.8" stroke-width="0.7"/>
<line x1="719.2" y1="450.0" x2="714.5" y2="448.3" stroke-width="0.7"/>
<line x1="728.6" y1="441.6" x2="719.9" y2="436.6" stroke-width="1.2"/>
<line x1="731.1" y1="429.2" x2="727.3" y2="426.0" stroke-width="0.7"/>
<line x1="739.6" y1="420.7" x2="736.4" y2="416.9" stroke-width="0.7"/>
<line x1="752.0" y1="418.2" x2="747.0" y2="409.5" stroke-width="1.2"/>
<line x1="760.4" y1="408.8" x2="758.7" y2="404.1" stroke-width="0.7"/>
<line x1="772.0" y1="405.6" x2="771.2" y2="400.7" stroke-width="0.7"/>
<line x1="775.4" y1="430.4" x2="773.9" y2="422.6" stroke-width="0.9"/>
<line x1="798.1" y1="431.9" x2="800.7" y2="424.4" stroke-width="0.9"/>
<line x1="817.1" y1="444.6" x2="823.1" y2="439.3" stroke-width="0.9"/>
<line x1="827.2" y1="465.0" x2="835.0" y2="463.5" stroke-width="0.9"/>
<line x1="825.7" y1="487.7" x2="833.2" y2="490.3" stroke-width="0.9"/>
<line x1="813.0" y1="506.7" x2="818.3" y2="512.7" stroke-width="0.9"/>
<line x1="792.6" y1="516.8" x2="794.1" y2="524.6" stroke-width="0.9"/>
<line x1="769.9" y1="515.3" x2="767.3" y2="522.8" stroke-width="0.9"/>
<line x1="750.9" y1="502.6" x2="744.9" y2="507.9" stroke-width="0.9"/>
<line x1="740.8" y1="482.2" x2="733.0" y2="483.7" stroke-width="0.9"/>
<line x1="742.3" y1="459.5" x2="734.8" y2="456.9" stroke-width="0.9"/>
<line x1="755.0" y1="440.5" x2="749.7" y2="434.5" stroke-width="0.9"/>
<path d="M 784 385.6 l 4.5 14 h -9 z"/>
<text x="784" y="379.6" font-size="13" text-anchor="middle" letter-spacing="1">N</text>
<text x="784" y="478.6" font-size="10.5" text-anchor="middle" font-style="italic" font-family="Georgia, serif">VAR 11°15'W</text>
</g>
</svg>